<svg xmlns="http://www.w3.org/2000/svg" width="190.908" height="61" viewBox="0 0 190.908 61"><defs><style>.a,.b{fill:#fff;}.a{font-size:51px;font-family:Gotham-Bold, Gotham;font-weight:700;}</style></defs><text class="a" transform="translate(50.908 49)"><tspan x="0" y="0">Swap</tspan></text><path class="b" d="M18.578,15.189V2a18.523,18.523,0,0,0,0,36.841V25.652a5.979,5.979,0,0,1-3.684-5.231A5.979,5.979,0,0,1,18.578,15.189Zm7.11,3.389H38.841A18.133,18.133,0,0,0,22.263,2V15.189A5.17,5.17,0,0,1,25.689,18.578Zm-3.426,7.073V38.841A18.133,18.133,0,0,0,38.841,22.263H25.689a5.17,5.17,0,0,1-3.426,3.389Z" transform="translate(-2 11.263)"/></svg>